<mxfile host="app.diagrams.net" agent="Mozilla/5.0 (Windows NT 10.0; Win64; x64) AppleWebKit/537.36 (KHTML, like Gecko) Chrome/133.0.0.0 Safari/537.36 Edg/133.0.0.0" version="26.0.15">
  <diagram name="Page-1" id="YtN1nSi710B2o5z7hdPx">
    <mxGraphModel dx="995" dy="663" grid="1" gridSize="10" guides="1" tooltips="1" connect="1" arrows="1" fold="1" page="1" pageScale="1" pageWidth="850" pageHeight="1100" math="0" shadow="0">
      <root>
        <mxCell id="0" />
        <mxCell id="1" parent="0" />
        <mxCell id="kkMAAxsVTp9UIa4ZnZZu-1" value="Release Process - Lower environments" style="shape=table;childLayout=tableLayout;startSize=40;collapsible=0;recursiveResize=0;expand=0;fontSize=16;" parent="1" vertex="1">
          <mxGeometry x="80" y="40" width="700" height="630" as="geometry" />
        </mxCell>
        <mxCell id="kkMAAxsVTp9UIa4ZnZZu-2" value="R&amp;D Team" style="shape=tableRow;horizontal=0;swimlaneHead=0;swimlaneBody=0;top=0;left=0;strokeColor=inherit;bottom=0;right=0;dropTarget=0;fontStyle=0;fillColor=none;points=[[0,0.5],[1,0.5]];portConstraint=eastwest;startSize=40;collapsible=0;recursiveResize=0;expand=0;fontSize=16;flipV=0;flipH=0;" parent="kkMAAxsVTp9UIa4ZnZZu-1" vertex="1">
          <mxGeometry y="40" width="700" height="197" as="geometry" />
        </mxCell>
        <mxCell id="kkMAAxsVTp9UIa4ZnZZu-3" value="Non-Prod" style="swimlane;swimlaneHead=0;swimlaneBody=0;fontStyle=0;strokeColor=inherit;connectable=0;fillColor=none;startSize=40;collapsible=0;recursiveResize=0;expand=0;fontSize=16;" parent="kkMAAxsVTp9UIa4ZnZZu-2" vertex="1">
          <mxGeometry x="40" width="329" height="197" as="geometry">
            <mxRectangle width="329" height="197" as="alternateBounds" />
          </mxGeometry>
        </mxCell>
        <mxCell id="kkMAAxsVTp9UIa4ZnZZu-4" value="Prod" style="swimlane;swimlaneHead=0;swimlaneBody=0;fontStyle=0;strokeColor=inherit;connectable=0;fillColor=none;startSize=40;collapsible=0;recursiveResize=0;expand=0;fontSize=16;" parent="kkMAAxsVTp9UIa4ZnZZu-2" vertex="1">
          <mxGeometry x="369" width="331" height="197" as="geometry">
            <mxRectangle width="331" height="197" as="alternateBounds" />
          </mxGeometry>
        </mxCell>
        <mxCell id="kkMAAxsVTp9UIa4ZnZZu-6" value="R&amp;D DevOps" style="shape=tableRow;horizontal=0;swimlaneHead=0;swimlaneBody=0;top=0;left=0;strokeColor=inherit;bottom=0;right=0;dropTarget=0;fontStyle=0;fillColor=none;points=[[0,0.5],[1,0.5]];portConstraint=eastwest;startSize=40;collapsible=0;recursiveResize=0;expand=0;fontSize=16;flipV=0;flipH=0;" parent="kkMAAxsVTp9UIa4ZnZZu-1" vertex="1">
          <mxGeometry y="237" width="700" height="196" as="geometry" />
        </mxCell>
        <mxCell id="kkMAAxsVTp9UIa4ZnZZu-7" value="" style="swimlane;swimlaneHead=0;swimlaneBody=0;fontStyle=0;connectable=0;strokeColor=inherit;fillColor=none;startSize=0;collapsible=0;recursiveResize=0;expand=0;fontSize=16;" parent="kkMAAxsVTp9UIa4ZnZZu-6" vertex="1">
          <mxGeometry x="40" width="329" height="196" as="geometry">
            <mxRectangle width="329" height="196" as="alternateBounds" />
          </mxGeometry>
        </mxCell>
        <mxCell id="kkMAAxsVTp9UIa4ZnZZu-8" value="" style="swimlane;swimlaneHead=0;swimlaneBody=0;fontStyle=0;connectable=0;strokeColor=inherit;fillColor=none;startSize=0;collapsible=0;recursiveResize=0;expand=0;fontSize=16;" parent="kkMAAxsVTp9UIa4ZnZZu-6" vertex="1">
          <mxGeometry x="369" width="331" height="196" as="geometry">
            <mxRectangle width="331" height="196" as="alternateBounds" />
          </mxGeometry>
        </mxCell>
        <mxCell id="kkMAAxsVTp9UIa4ZnZZu-10" value="DevOps" style="shape=tableRow;horizontal=0;swimlaneHead=0;swimlaneBody=0;top=0;left=0;strokeColor=inherit;bottom=0;right=0;dropTarget=0;fontStyle=0;fillColor=none;points=[[0,0.5],[1,0.5]];portConstraint=eastwest;startSize=40;collapsible=0;recursiveResize=0;expand=0;fontSize=16;flipV=0;flipH=0;" parent="kkMAAxsVTp9UIa4ZnZZu-1" vertex="1">
          <mxGeometry y="433" width="700" height="197" as="geometry" />
        </mxCell>
        <mxCell id="kkMAAxsVTp9UIa4ZnZZu-11" value="" style="swimlane;swimlaneHead=0;swimlaneBody=0;fontStyle=0;connectable=0;strokeColor=inherit;fillColor=none;startSize=0;collapsible=0;recursiveResize=0;expand=0;fontSize=16;" parent="kkMAAxsVTp9UIa4ZnZZu-10" vertex="1">
          <mxGeometry x="40" width="329" height="197" as="geometry">
            <mxRectangle width="329" height="197" as="alternateBounds" />
          </mxGeometry>
        </mxCell>
        <mxCell id="kkMAAxsVTp9UIa4ZnZZu-12" value="" style="swimlane;swimlaneHead=0;swimlaneBody=0;fontStyle=0;connectable=0;strokeColor=inherit;fillColor=none;startSize=0;collapsible=0;recursiveResize=0;expand=0;fontSize=16;" parent="kkMAAxsVTp9UIa4ZnZZu-10" vertex="1">
          <mxGeometry x="369" width="331" height="197" as="geometry">
            <mxRectangle width="331" height="197" as="alternateBounds" />
          </mxGeometry>
        </mxCell>
      </root>
    </mxGraphModel>
  </diagram>
</mxfile>
